<svg width="100" height="100" viewBox="0 0 176 176" fill="none" xmlns="http://www.w3.org/2000/svg">
<path d="M43.4387 107.511H47.7924L51.4856 116.517H51.6561L55.3493 107.511H59.7029V122.057H56.2797V113.122H56.1589L52.6646 121.964H50.4771L46.9828 113.072H46.862V122.057H43.4387V107.511ZM61.8958 122.057V107.511H72.0378V110.366H65.4114V113.349H71.5194V116.211H65.4114V119.202H72.0378V122.057H61.8958ZM74.2395 122.057V107.511H84.3816V110.366H77.7551V113.349H83.8631V116.211H77.7551V119.202H84.3816V122.057H74.2395ZM86.1074 110.366V107.511H98.4015V110.366H93.9909V122.057H90.525V110.366H86.1074ZM103.634 107.511V122.057H100.118V107.511H103.634ZM118.22 107.511V122.057H115.237L109.449 113.662H109.357V122.057H105.841V107.511H108.867L114.591 115.892H114.712V107.511H118.22ZM129.976 112.263C129.896 111.964 129.778 111.702 129.621 111.474C129.465 111.242 129.273 111.046 129.046 110.885C128.819 110.724 128.558 110.603 128.265 110.523C127.971 110.437 127.649 110.395 127.299 110.395C126.593 110.395 125.983 110.565 125.466 110.906C124.955 111.247 124.56 111.744 124.28 112.398C124.001 113.046 123.861 113.835 123.861 114.763C123.861 115.695 123.996 116.491 124.266 117.149C124.536 117.807 124.927 118.309 125.438 118.655C125.949 119 126.57 119.173 127.299 119.173C127.943 119.173 128.487 119.069 128.932 118.861C129.382 118.648 129.723 118.347 129.955 117.959C130.187 117.57 130.303 117.113 130.303 116.588L130.956 116.666H127.42V114.102H133.691V116.027C133.691 117.329 133.414 118.444 132.86 119.372C132.311 120.3 131.553 121.013 130.587 121.51C129.626 122.007 128.52 122.256 127.27 122.256C125.883 122.256 124.664 121.955 123.613 121.354C122.562 120.752 121.742 119.895 121.155 118.782C120.568 117.665 120.275 116.339 120.275 114.805C120.275 113.612 120.452 112.554 120.807 111.631C121.162 110.702 121.657 109.916 122.292 109.273C122.931 108.629 123.67 108.141 124.508 107.809C125.35 107.478 126.257 107.312 127.228 107.312C128.071 107.312 128.854 107.433 129.579 107.675C130.308 107.916 130.952 108.257 131.51 108.697C132.074 109.138 132.531 109.661 132.881 110.267C133.232 110.873 133.449 111.538 133.535 112.263H129.976Z" fill="black"/>
<path d="M63.6447 132.654H65.1788L70.4558 145.324H70.5836L75.8606 132.654H77.3947V147.199H76.1447V135.459H76.0311L71.1234 147.199H69.916L65.0083 135.459H64.8947V147.199H63.6447V132.654ZM81.2832 147.199H79.8912L85.1824 132.654H86.6028L91.894 147.199H90.502L85.9423 134.38H85.8429L81.2832 147.199ZM82.2846 141.624H89.5005V142.817H82.2846V141.624ZM91.807 133.847V132.654H102.354V133.847H97.7445V147.199H96.4164V133.847H91.807ZM105.344 147.199V132.654H113.781V133.847H106.672V139.323H113.334V140.516H106.672V146.006H113.923V147.199H105.344Z" fill="black"/>
<path d="M109.89 34C108.02 34 106.15 34.7125 104.736 36.1298L98.7421 42.1356L109.89 53.3137L111.482 51.713L115.88 47.3035V47.2991C118.704 44.4642 118.706 39.8014 115.88 36.9676L115.044 36.1298C113.631 34.7125 111.76 34 109.89 34ZM67.1099 34.0044C65.2401 34.0044 63.3694 34.7125 61.9558 36.1298L61.1203 36.9676C58.2932 39.8023 58.2932 44.4688 61.1203 47.3035L67.1099 53.3137L78.2579 42.1356L76.6616 40.5393L72.2639 36.1298C70.8504 34.7125 68.9796 34.0044 67.1099 34.0044ZM109.89 38.4889C110.598 38.4889 111.304 38.7687 111.856 39.3223L112.696 40.1601C113.8 41.2673 113.8 42.9994 112.696 44.1066V44.111L109.89 46.9243L105.114 42.1356L107.92 39.3223C108.472 38.7687 109.182 38.4889 109.89 38.4889ZM67.1099 38.4933C67.8182 38.4933 68.5235 38.7687 69.0756 39.3223H69.08L71.8857 42.1356L67.1099 46.9243L64.3042 44.111C63.1999 43.0038 63.1999 41.2717 64.3042 40.1645L65.1397 39.3223C65.6918 38.7687 66.4015 38.4933 67.1099 38.4933ZM88.5 45.5221C78.5785 45.5221 70.4873 53.6352 70.4873 63.5835C70.4873 73.5318 78.5785 81.6449 88.5 81.6449C98.4215 81.6449 106.513 73.5318 106.513 63.5835C106.513 53.6352 98.4215 45.5221 88.5 45.5221ZM88.5 50.0374C95.9878 50.0374 102.01 56.0755 102.01 63.5835C102.01 71.0915 95.9878 77.1295 88.5 77.1295C81.0122 77.1295 74.9904 71.0915 74.9904 63.5835C74.9904 56.0755 81.0122 50.0374 88.5 50.0374ZM67.1099 73.6901L65.5179 75.2863L61.1203 79.7003C58.2932 82.5349 58.2932 87.1971 61.1203 90.0318L61.9558 90.874C64.7829 93.7087 69.4369 93.7087 72.2639 90.874L78.2579 84.8682L67.1099 73.6901ZM109.89 73.6901L98.7421 84.8638L100.338 86.4601L104.736 90.8696C107.563 93.7043 112.217 93.7043 115.044 90.8696L115.88 90.0318C118.707 87.1971 118.707 82.5305 115.88 79.6959L109.89 73.6901ZM67.1099 80.0751L71.8857 84.8638L69.08 87.6771V87.6815C67.9758 88.7887 66.2484 88.7887 65.1441 87.6815L64.3042 86.8393C63.1999 85.7321 63.1999 84 64.3042 82.8928L67.1099 80.0751ZM109.89 80.0751L112.696 82.8883C113.8 83.9956 113.8 85.7321 112.696 86.8393L111.86 87.6771C110.756 88.7843 109.029 88.7843 107.924 87.6771H107.92L105.114 84.8638L109.89 80.0751Z" fill="black"/>
</svg>
